<svg id="visual" viewBox="0 0 900 600" width="900" height="600" xmlns="http://www.w3.org/2000/svg" xmlns:xlink="http://www.w3.org/1999/xlink" version="1.1"><g stroke-width="1" stroke-linejoin="bevel"><path d="M483 289L483 166L421 237Z" fill="#277297" stroke="#277297"></path><path d="M483 289L562 207L483 166Z" fill="#112e42" stroke="#112e42"></path><path d="M281 193L364 262L421 237Z" fill="#081a28" stroke="#081a28"></path><path d="M421 237L426 360L483 289Z" fill="#112e42" stroke="#112e42"></path><path d="M524 80L413 112L483 166Z" fill="#19435d" stroke="#19435d"></path><path d="M483 166L413 112L421 237Z" fill="#081a28" stroke="#081a28"></path><path d="M364 262L426 360L421 237Z" fill="#081a28" stroke="#081a28"></path><path d="M483 289L621 339L562 207Z" fill="#1d4e6b" stroke="#1d4e6b"></path><path d="M426 360L476 378L483 289Z" fill="#277297" stroke="#277297"></path><path d="M562 207L524 80L483 166Z" fill="#277297" stroke="#277297"></path><path d="M609 360L621 339L483 289Z" fill="#0c2435" stroke="#0c2435"></path><path d="M562 207L582 79L524 80Z" fill="#277297" stroke="#277297"></path><path d="M661 231L582 79L562 207Z" fill="#15384f" stroke="#15384f"></path><path d="M621 339L661 231L562 207Z" fill="#112e42" stroke="#112e42"></path><path d="M476 378L609 360L483 289Z" fill="#112e42" stroke="#112e42"></path><path d="M281 193L310 314L364 262Z" fill="#1d4e6b" stroke="#1d4e6b"></path><path d="M364 262L310 314L426 360Z" fill="#00101c" stroke="#00101c"></path><path d="M413 112L281 193L421 237Z" fill="#277297" stroke="#277297"></path><path d="M579 0L473 0L524 80Z" fill="#00101c" stroke="#00101c"></path><path d="M524 80L473 0L413 112Z" fill="#205a7a" stroke="#205a7a"></path><path d="M413 112L280 80L281 193Z" fill="#1d4e6b" stroke="#1d4e6b"></path><path d="M677 418L691 320L621 339Z" fill="#1d4e6b" stroke="#1d4e6b"></path><path d="M621 339L691 320L661 231Z" fill="#081a28" stroke="#081a28"></path><path d="M473 0L397 0L413 112Z" fill="#00101c" stroke="#00101c"></path><path d="M661 231L683 84L582 79Z" fill="#1d4e6b" stroke="#1d4e6b"></path><path d="M582 79L579 0L524 80Z" fill="#205a7a" stroke="#205a7a"></path><path d="M761 136L683 84L661 231Z" fill="#19435d" stroke="#19435d"></path><path d="M683 84L579 0L582 79Z" fill="#00101c" stroke="#00101c"></path><path d="M397 0L280 80L413 112Z" fill="#15384f" stroke="#15384f"></path><path d="M310 314L317 429L426 360Z" fill="#277297" stroke="#277297"></path><path d="M426 360L420 487L476 378Z" fill="#081a28" stroke="#081a28"></path><path d="M476 378L535 485L609 360Z" fill="#0c2435" stroke="#0c2435"></path><path d="M201 431L317 429L310 314Z" fill="#112e42" stroke="#112e42"></path><path d="M420 487L535 485L476 378Z" fill="#297ea6" stroke="#297ea6"></path><path d="M609 360L677 418L621 339Z" fill="#112e42" stroke="#112e42"></path><path d="M317 429L420 487L426 360Z" fill="#00101c" stroke="#00101c"></path><path d="M617 508L677 418L609 360Z" fill="#1d4e6b" stroke="#1d4e6b"></path><path d="M200 200L205 269L281 193Z" fill="#0c2435" stroke="#0c2435"></path><path d="M281 193L205 269L310 314Z" fill="#112e42" stroke="#112e42"></path><path d="M216 84L200 200L281 193Z" fill="#00101c" stroke="#00101c"></path><path d="M201 431L316 462L317 429Z" fill="#205a7a" stroke="#205a7a"></path><path d="M317 429L316 462L420 487Z" fill="#112e42" stroke="#112e42"></path><path d="M789 286L661 231L691 320Z" fill="#0c2435" stroke="#0c2435"></path><path d="M789 286L765 163L661 231Z" fill="#00101c" stroke="#00101c"></path><path d="M765 163L761 136L661 231Z" fill="#205a7a" stroke="#205a7a"></path><path d="M683 84L703 0L579 0Z" fill="#081a28" stroke="#081a28"></path><path d="M261 0L216 84L280 80Z" fill="#00101c" stroke="#00101c"></path><path d="M280 80L216 84L281 193Z" fill="#1d4e6b" stroke="#1d4e6b"></path><path d="M519 600L617 508L535 485Z" fill="#246688" stroke="#246688"></path><path d="M535 485L617 508L609 360Z" fill="#15384f" stroke="#15384f"></path><path d="M761 395L789 286L691 320Z" fill="#277297" stroke="#277297"></path><path d="M765 163L900 128L761 136Z" fill="#081a28" stroke="#081a28"></path><path d="M761 395L691 320L677 418Z" fill="#081a28" stroke="#081a28"></path><path d="M397 0L261 0L280 80Z" fill="#0c2435" stroke="#0c2435"></path><path d="M761 136L703 0L683 84Z" fill="#205a7a" stroke="#205a7a"></path><path d="M713 481L761 395L677 418Z" fill="#15384f" stroke="#15384f"></path><path d="M617 508L713 481L677 418Z" fill="#277297" stroke="#277297"></path><path d="M135 326L201 431L205 269Z" fill="#19435d" stroke="#19435d"></path><path d="M205 269L201 431L310 314Z" fill="#277297" stroke="#277297"></path><path d="M216 84L134 162L200 200Z" fill="#081a28" stroke="#081a28"></path><path d="M200 200L134 162L205 269Z" fill="#00101c" stroke="#00101c"></path><path d="M105 110L134 162L216 84Z" fill="#1d4e6b" stroke="#1d4e6b"></path><path d="M134 162L135 326L205 269Z" fill="#081a28" stroke="#081a28"></path><path d="M261 0L192 0L216 84Z" fill="#277297" stroke="#277297"></path><path d="M420 487L519 600L535 485Z" fill="#297ea6" stroke="#297ea6"></path><path d="M617 508L727 600L713 481Z" fill="#19435d" stroke="#19435d"></path><path d="M431 600L519 600L420 487Z" fill="#297ea6" stroke="#297ea6"></path><path d="M431 600L420 487L316 462Z" fill="#19435d" stroke="#19435d"></path><path d="M267 600L431 600L316 462Z" fill="#0c2435" stroke="#0c2435"></path><path d="M201 431L180 475L316 462Z" fill="#112e42" stroke="#112e42"></path><path d="M130 486L180 475L201 431Z" fill="#1d4e6b" stroke="#1d4e6b"></path><path d="M192 0L105 110L216 84Z" fill="#205a7a" stroke="#205a7a"></path><path d="M0 286L69 374L135 326Z" fill="#112e42" stroke="#112e42"></path><path d="M519 600L621 600L617 508Z" fill="#205a7a" stroke="#205a7a"></path><path d="M900 279L900 207L789 286Z" fill="#15384f" stroke="#15384f"></path><path d="M789 286L900 207L765 163Z" fill="#205a7a" stroke="#205a7a"></path><path d="M761 136L837 0L703 0Z" fill="#297ea6" stroke="#297ea6"></path><path d="M900 279L789 286L900 387Z" fill="#112e42" stroke="#112e42"></path><path d="M900 387L789 286L761 395Z" fill="#246688" stroke="#246688"></path><path d="M900 387L761 395L900 466Z" fill="#205a7a" stroke="#205a7a"></path><path d="M900 128L837 0L761 136Z" fill="#0c2435" stroke="#0c2435"></path><path d="M900 207L900 128L765 163Z" fill="#246688" stroke="#246688"></path><path d="M180 475L267 600L316 462Z" fill="#15384f" stroke="#15384f"></path><path d="M69 374L201 431L135 326Z" fill="#1d4e6b" stroke="#1d4e6b"></path><path d="M69 374L130 486L201 431Z" fill="#297ea6" stroke="#297ea6"></path><path d="M180 475L187 600L267 600Z" fill="#297ea6" stroke="#297ea6"></path><path d="M0 212L135 326L134 162Z" fill="#1d4e6b" stroke="#1d4e6b"></path><path d="M192 0L106 0L105 110Z" fill="#246688" stroke="#246688"></path><path d="M105 110L0 212L134 162Z" fill="#19435d" stroke="#19435d"></path><path d="M621 600L727 600L617 508Z" fill="#277297" stroke="#277297"></path><path d="M825 528L761 395L713 481Z" fill="#15384f" stroke="#15384f"></path><path d="M727 600L825 528L713 481Z" fill="#00101c" stroke="#00101c"></path><path d="M97 600L187 600L130 486Z" fill="#112e42" stroke="#112e42"></path><path d="M130 486L187 600L180 475Z" fill="#277297" stroke="#277297"></path><path d="M900 128L900 0L837 0Z" fill="#1d4e6b" stroke="#1d4e6b"></path><path d="M825 528L900 466L761 395Z" fill="#277297" stroke="#277297"></path><path d="M0 77L0 212L105 110Z" fill="#081a28" stroke="#081a28"></path><path d="M0 212L0 286L135 326Z" fill="#112e42" stroke="#112e42"></path><path d="M69 374L0 422L130 486Z" fill="#297ea6" stroke="#297ea6"></path><path d="M727 600L817 600L825 528Z" fill="#297ea6" stroke="#297ea6"></path><path d="M825 528L900 600L900 466Z" fill="#205a7a" stroke="#205a7a"></path><path d="M106 0L0 77L105 110Z" fill="#205a7a" stroke="#205a7a"></path><path d="M0 286L0 422L69 374Z" fill="#19435d" stroke="#19435d"></path><path d="M106 0L0 0L0 77Z" fill="#277297" stroke="#277297"></path><path d="M0 518L97 600L130 486Z" fill="#0c2435" stroke="#0c2435"></path><path d="M817 600L900 600L825 528Z" fill="#15384f" stroke="#15384f"></path><path d="M0 422L0 518L130 486Z" fill="#0c2435" stroke="#0c2435"></path><path d="M0 518L0 600L97 600Z" fill="#1d4e6b" stroke="#1d4e6b"></path></g></svg>